solid Keycaps v1
facet normal 0.0 0.0 -1.0
  outer loop
    vertex 0.06814834742186386 13.517638090205045 0.0
    vertex 3.524958103184872e-16 1.9999999999999996 0.0
    vertex 0.0 13.000000000000002 0.0
  endloop
endfacet
facet normal 0.0 0.0 -1.0
  outer loop
    vertex 3.524958103184872e-16 1.9999999999999996 0.0
    vertex 0.06814834742186386 13.517638090205045 0.0
    vertex 0.06814834742186386 1.482361909794958 0.0
  endloop
endfacet
facet normal 0.0 0.0 -1.0
  outer loop
    vertex 0.06814834742186386 1.482361909794958 0.0
    vertex 0.06814834742186386 13.517638090205045 0.0
    vertex 0.2679491924311233 14.000000000000002 0.0
  endloop
endfacet
facet normal 0.0 0.0 -1.0
  outer loop
    vertex 0.06814834742186386 1.482361909794958 0.0
    vertex 0.2679491924311233 14.000000000000002 0.0
    vertex 0.2679491924311229 0.9999999999999998 0.0
  endloop
endfacet
facet normal 0.0 0.0 -1.0
  outer loop
    vertex 0.2679491924311229 0.9999999999999998 0.0
    vertex 0.2679491924311233 14.000000000000002 0.0
    vertex 0.5857864376269052 0.5857864376269046 0.0
  endloop
endfacet
facet normal 0.0 0.0 -1.0
  outer loop
    vertex 0.5857864376269052 0.5857864376269046 0.0
    vertex 0.2679491924311233 14.000000000000002 0.0
    vertex 0.585786437626905 14.414213562373098 0.0
  endloop
endfacet
facet normal 0.0 0.0 -1.0
  outer loop
    vertex 0.5857864376269052 0.5857864376269046 0.0
    vertex 0.585786437626905 14.414213562373098 0.0
    vertex 1.0000000000000009 14.73205080756888 0.0
  endloop
endfacet
facet normal 0.0 0.0 -1.0
  outer loop
    vertex 0.5857864376269052 0.5857864376269046 0.0
    vertex 1.0000000000000009 14.73205080756888 0.0
    vertex 1.0000000000000002 0.2679491924311229 0.0
  endloop
endfacet
facet normal 0.0 0.0 -1.0
  outer loop
    vertex 1.0000000000000002 0.2679491924311229 0.0
    vertex 1.0000000000000009 14.73205080756888 0.0
    vertex 1.4823619097949583 0.0681483474218635 0.0
  endloop
endfacet
facet normal 0.0 0.0 -1.0
  outer loop
    vertex 1.4823619097949583 0.0681483474218635 0.0
    vertex 1.0000000000000009 14.73205080756888 0.0
    vertex 1.482361909794959 14.931851652578137 0.0
  endloop
endfacet
facet normal 0.0 0.0 -1.0
  outer loop
    vertex 1.4823619097949583 0.0681483474218635 0.0
    vertex 1.482361909794959 14.931851652578137 0.0
    vertex 2.0 0.0 0.0
  endloop
endfacet
facet normal 0.0 0.0 -1.0
  outer loop
    vertex 2.0 0.0 0.0
    vertex 1.482361909794959 14.931851652578137 0.0
    vertex 1.9999999999999996 15.0 0.0
  endloop
endfacet
facet normal 0.0 0.0 -1.0
  outer loop
    vertex 2.0 0.0 0.0
    vertex 1.9999999999999996 15.0 0.0
    vertex 12.999999999999998 15.0 0.0
  endloop
endfacet
facet normal 0.0 0.0 -1.0
  outer loop
    vertex 2.0 0.0 0.0
    vertex 12.999999999999998 15.0 0.0
    vertex 12.999999999999998 3.524958103184872e-16 0.0
  endloop
endfacet
facet normal 0.0 0.0 -1.0
  outer loop
    vertex 12.999999999999998 3.524958103184872e-16 0.0
    vertex 12.999999999999998 15.0 0.0
    vertex 13.517638090205041 14.931851652578137 0.0
  endloop
endfacet
facet normal 0.0 0.0 -1.0
  outer loop
    vertex 12.999999999999998 3.524958103184872e-16 0.0
    vertex 13.517638090205041 14.931851652578137 0.0
    vertex 13.517638090205041 0.06814834742186386 0.0
  endloop
endfacet
facet normal 0.0 0.0 -1.0
  outer loop
    vertex 13.517638090205041 0.06814834742186386 0.0
    vertex 13.517638090205041 14.931851652578137 0.0
    vertex 14.0 14.732050807568877 0.0
  endloop
endfacet
facet normal 0.0 0.0 -1.0
  outer loop
    vertex 13.517638090205041 0.06814834742186386 0.0
    vertex 14.0 14.732050807568877 0.0
    vertex 14.0 0.2679491924311229 0.0
  endloop
endfacet
facet normal 0.0 0.0 -1.0
  outer loop
    vertex 14.0 0.2679491924311229 0.0
    vertex 14.0 14.732050807568877 0.0
    vertex 14.414213562373094 14.414213562373094 0.0
  endloop
endfacet
facet normal 0.0 0.0 -1.0
  outer loop
    vertex 14.0 0.2679491924311229 0.0
    vertex 14.414213562373094 14.414213562373094 0.0
    vertex 14.414213562373094 0.585786437626905 0.0
  endloop
endfacet
facet normal 0.0 0.0 -1.0
  outer loop
    vertex 14.414213562373094 0.585786437626905 0.0
    vertex 14.414213562373094 14.414213562373094 0.0
    vertex 14.732050807568877 14.0 0.0
  endloop
endfacet
facet normal 0.0 0.0 -1.0
  outer loop
    vertex 14.414213562373094 0.585786437626905 0.0
    vertex 14.732050807568877 14.0 0.0
    vertex 14.732050807568877 0.9999999999999999 0.0
  endloop
endfacet
facet normal 0.0 0.0 -1.0
  outer loop
    vertex 14.732050807568877 0.9999999999999999 0.0
    vertex 14.732050807568877 14.0 0.0
    vertex 14.931851652578134 13.517638090205041 0.0
  endloop
endfacet
facet normal 0.0 0.0 -1.0
  outer loop
    vertex 14.732050807568877 0.9999999999999999 0.0
    vertex 14.931851652578134 13.517638090205041 0.0
    vertex 14.931851652578134 1.482361909794958 0.0
  endloop
endfacet
facet normal 0.0 0.0 -1.0
  outer loop
    vertex 14.931851652578134 1.482361909794958 0.0
    vertex 14.931851652578134 13.517638090205041 0.0
    vertex 14.999999999999998 13.000000000000002 0.0
  endloop
endfacet
facet normal 0.0 0.0 -1.0
  outer loop
    vertex 14.931851652578134 1.482361909794958 0.0
    vertex 14.999999999999998 13.000000000000002 0.0
    vertex 14.999999999999998 1.9999999999999998 0.0
  endloop
endfacet
facet normal -0.0 -0.0 1.0
  outer loop
    vertex 2.0 0.0 2.5
    vertex 5.999999999999999 4.5 2.500000000000001
    vertex 5.499999999999999 5.0 2.500000000000001
  endloop
endfacet
facet normal -0.0 -0.0 1.0
  outer loop
    vertex 5.999999999999999 4.5 2.500000000000001
    vertex 2.0 0.0 2.5
    vertex 12.999999999999998 3.524958103184872e-16 2.5
  endloop
endfacet
facet normal -0.0 -0.0 1.0
  outer loop
    vertex 5.999999999999999 4.5 2.500000000000001
    vertex 12.999999999999998 3.524958103184872e-16 2.5
    vertex 8.999999999999998 4.5 2.500000000000001
  endloop
endfacet
facet normal -0.0 -0.0 1.0
  outer loop
    vertex 8.999999999999998 4.5 2.500000000000001
    vertex 12.999999999999998 3.524958103184872e-16 2.5
    vertex 9.5 5.000000000000001 2.500000000000001
  endloop
endfacet
facet normal -0.0 -0.0 1.0
  outer loop
    vertex 9.5 5.000000000000001 2.500000000000001
    vertex 12.999999999999998 3.524958103184872e-16 2.5
    vertex 9.5 6.870000000000001 2.5
  endloop
endfacet
facet normal -0.0 -0.0 1.0
  outer loop
    vertex 9.5 6.870000000000001 2.5
    vertex 12.999999999999998 3.524958103184872e-16 2.5
    vertex 9.5 8.13 2.5
  endloop
endfacet
facet normal -0.0 -0.0 1.0
  outer loop
    vertex 3.524958103184872e-16 1.9999999999999996 2.5
    vertex 0.06814834742186386 13.517638090205045 2.5
    vertex 0.0 13.000000000000002 2.5
  endloop
endfacet
facet normal -0.0 -0.0 1.0
  outer loop
    vertex 0.06814834742186386 13.517638090205045 2.5
    vertex 3.524958103184872e-16 1.9999999999999996 2.5
    vertex 0.06814834742186386 1.482361909794958 2.5
  endloop
endfacet
facet normal -0.0 -0.0 1.0
  outer loop
    vertex 0.06814834742186386 13.517638090205045 2.5
    vertex 0.06814834742186386 1.482361909794958 2.5
    vertex 0.2679491924311229 0.9999999999999998 2.5
  endloop
endfacet
facet normal -0.0 -0.0 1.0
  outer loop
    vertex 0.06814834742186386 13.517638090205045 2.5
    vertex 0.2679491924311229 0.9999999999999998 2.5
    vertex 0.2679491924311233 14.000000000000002 2.5
  endloop
endfacet
facet normal -0.0 -0.0 1.0
  outer loop
    vertex 0.2679491924311233 14.000000000000002 2.5
    vertex 0.2679491924311229 0.9999999999999998 2.5
    vertex 0.5857864376269052 0.5857864376269046 2.5
  endloop
endfacet
facet normal -0.0 -0.0 1.0
  outer loop
    vertex 0.2679491924311233 14.000000000000002 2.5
    vertex 0.5857864376269052 0.5857864376269046 2.5
    vertex 0.585786437626905 14.414213562373098 2.5
  endloop
endfacet
facet normal -0.0 -0.0 1.0
  outer loop
    vertex 0.585786437626905 14.414213562373098 2.5
    vertex 0.5857864376269052 0.5857864376269046 2.5
    vertex 1.0000000000000009 14.73205080756888 2.5
  endloop
endfacet
facet normal -0.0 -0.0 1.0
  outer loop
    vertex 1.0000000000000009 14.73205080756888 2.5
    vertex 0.5857864376269052 0.5857864376269046 2.5
    vertex 1.0000000000000002 0.2679491924311229 2.5
  endloop
endfacet
facet normal -0.0 -0.0 1.0
  outer loop
    vertex 1.0000000000000009 14.73205080756888 2.5
    vertex 1.0000000000000002 0.2679491924311229 2.5
    vertex 1.4823619097949583 0.0681483474218635 2.5
  endloop
endfacet
facet normal -0.0 -0.0 1.0
  outer loop
    vertex 1.0000000000000009 14.73205080756888 2.5
    vertex 1.4823619097949583 0.0681483474218635 2.5
    vertex 1.482361909794959 14.931851652578137 2.5
  endloop
endfacet
facet normal -0.0 -0.0 1.0
  outer loop
    vertex 1.482361909794959 14.931851652578137 2.5
    vertex 1.4823619097949583 0.0681483474218635 2.5
    vertex 2.0 0.0 2.5
  endloop
endfacet
facet normal -0.0 -0.0 1.0
  outer loop
    vertex 1.482361909794959 14.931851652578137 2.5
    vertex 2.0 0.0 2.5
    vertex 1.9999999999999996 15.0 2.5
  endloop
endfacet
facet normal -0.0 -0.0 1.0
  outer loop
    vertex 1.9999999999999996 15.0 2.5
    vertex 2.0 0.0 2.5
    vertex 5.5000000000000036 9.999999999999998 2.500000000000001
  endloop
endfacet
facet normal -0.0 -0.0 1.0
  outer loop
    vertex 1.9999999999999996 15.0 2.5
    vertex 5.5000000000000036 9.999999999999998 2.500000000000001
    vertex 6.000000000000003 10.499999999999998 2.500000000000001
  endloop
endfacet
facet normal -0.0 -0.0 1.0
  outer loop
    vertex 1.9999999999999996 15.0 2.5
    vertex 6.000000000000003 10.499999999999998 2.500000000000001
    vertex 12.999999999999998 15.0 2.5
  endloop
endfacet
facet normal -0.0 -0.0 1.0
  outer loop
    vertex 5.5000000000000036 9.999999999999998 2.500000000000001
    vertex 2.0 0.0 2.5
    vertex 5.499999999999999 8.13 2.5
  endloop
endfacet
facet normal -0.0 -0.0 1.0
  outer loop
    vertex 5.499999999999999 8.13 2.5
    vertex 2.0 0.0 2.5
    vertex 5.499999999999999 5.0 2.500000000000001
  endloop
endfacet
facet normal -0.0 -0.0 1.0
  outer loop
    vertex 5.499999999999999 8.13 2.5
    vertex 5.499999999999999 5.0 2.500000000000001
    vertex 5.499999999999999 6.870000000000001 2.5
  endloop
endfacet
facet normal -0.0 -0.0 1.0
  outer loop
    vertex 12.999999999999998 15.0 2.5
    vertex 6.000000000000003 10.499999999999998 2.500000000000001
    vertex 8.999999999999995 10.499999999999998 2.500000000000004
  endloop
endfacet
facet normal -0.0 -0.0 1.0
  outer loop
    vertex 12.999999999999998 15.0 2.5
    vertex 8.999999999999995 10.499999999999998 2.500000000000004
    vertex 9.499999999999995 9.999999999999998 2.500000000000003
  endloop
endfacet
facet normal -0.0 -0.0 1.0
  outer loop
    vertex 12.999999999999998 15.0 2.5
    vertex 9.499999999999995 9.999999999999998 2.500000000000003
    vertex 9.5 8.13 2.5
  endloop
endfacet
facet normal -0.0 -0.0 1.0
  outer loop
    vertex 12.999999999999998 15.0 2.5
    vertex 9.5 8.13 2.5
    vertex 12.999999999999998 3.524958103184872e-16 2.5
  endloop
endfacet
facet normal -0.0 -0.0 1.0
  outer loop
    vertex 12.999999999999998 15.0 2.5
    vertex 12.999999999999998 3.524958103184872e-16 2.5
    vertex 13.517638090205041 0.06814834742186386 2.5
  endloop
endfacet
facet normal -0.0 -0.0 1.0
  outer loop
    vertex 12.999999999999998 15.0 2.5
    vertex 13.517638090205041 0.06814834742186386 2.5
    vertex 13.517638090205041 14.931851652578137 2.5
  endloop
endfacet
facet normal -0.0 -0.0 1.0
  outer loop
    vertex 13.517638090205041 14.931851652578137 2.5
    vertex 13.517638090205041 0.06814834742186386 2.5
    vertex 14.0 0.2679491924311229 2.5
  endloop
endfacet
facet normal -0.0 -0.0 1.0
  outer loop
    vertex 13.517638090205041 14.931851652578137 2.5
    vertex 14.0 0.2679491924311229 2.5
    vertex 14.0 14.732050807568877 2.5
  endloop
endfacet
facet normal -0.0 -0.0 1.0
  outer loop
    vertex 14.0 14.732050807568877 2.5
    vertex 14.0 0.2679491924311229 2.5
    vertex 14.414213562373094 0.585786437626905 2.5
  endloop
endfacet
facet normal -0.0 -0.0 1.0
  outer loop
    vertex 14.0 14.732050807568877 2.5
    vertex 14.414213562373094 0.585786437626905 2.5
    vertex 14.414213562373094 14.414213562373094 2.5
  endloop
endfacet
facet normal -0.0 -0.0 1.0
  outer loop
    vertex 14.414213562373094 14.414213562373094 2.5
    vertex 14.414213562373094 0.585786437626905 2.5
    vertex 14.732050807568877 0.9999999999999999 2.5
  endloop
endfacet
facet normal -0.0 -0.0 1.0
  outer loop
    vertex 14.414213562373094 14.414213562373094 2.5
    vertex 14.732050807568877 0.9999999999999999 2.5
    vertex 14.732050807568877 14.0 2.5
  endloop
endfacet
facet normal -0.0 -0.0 1.0
  outer loop
    vertex 14.732050807568877 14.0 2.5
    vertex 14.732050807568877 0.9999999999999999 2.5
    vertex 14.931851652578134 1.482361909794958 2.5
  endloop
endfacet
facet normal -0.0 -0.0 1.0
  outer loop
    vertex 14.732050807568877 14.0 2.5
    vertex 14.931851652578134 1.482361909794958 2.5
    vertex 14.931851652578134 13.517638090205041 2.5
  endloop
endfacet
facet normal -0.0 -0.0 1.0
  outer loop
    vertex 14.931851652578134 13.517638090205041 2.5
    vertex 14.931851652578134 1.482361909794958 2.5
    vertex 14.999999999999998 1.9999999999999998 2.5
  endloop
endfacet
facet normal -0.0 -0.0 1.0
  outer loop
    vertex 14.931851652578134 13.517638090205041 2.5
    vertex 14.999999999999998 1.9999999999999998 2.5
    vertex 14.999999999999998 13.000000000000002 2.5
  endloop
endfacet
facet normal -0.0 -0.0 1.0
  outer loop
    vertex 9.5 6.870000000000001 2.5
    vertex 8.229999999999999 8.13 2.5
    vertex 8.229999999999999 6.870000000000001 2.5
  endloop
endfacet
facet normal -0.0 -0.0 1.0
  outer loop
    vertex 8.229999999999999 8.13 2.5
    vertex 9.5 6.870000000000001 2.5
    vertex 9.5 8.13 2.5
  endloop
endfacet
facet normal -0.0 -0.0 1.0
  outer loop
    vertex 8.229999999999999 5.4 2.5
    vertex 6.77 6.870000000000001 2.5
    vertex 6.77 5.4 2.5
  endloop
endfacet
facet normal -0.0 -0.0 1.0
  outer loop
    vertex 6.77 6.870000000000001 2.5
    vertex 8.229999999999999 5.4 2.5
    vertex 6.77 8.13 2.5
  endloop
endfacet
facet normal -0.0 -0.0 1.0
  outer loop
    vertex 6.77 8.13 2.5
    vertex 8.229999999999999 5.4 2.5
    vertex 6.77 9.6 2.5
  endloop
endfacet
facet normal -0.0 -0.0 1.0
  outer loop
    vertex 6.77 9.6 2.5
    vertex 8.229999999999999 5.4 2.5
    vertex 8.229999999999999 9.6 2.5
  endloop
endfacet
facet normal -0.0 -0.0 1.0
  outer loop
    vertex 8.229999999999999 9.6 2.5
    vertex 8.229999999999999 5.4 2.5
    vertex 8.229999999999999 6.870000000000001 2.5
  endloop
endfacet
facet normal -0.0 -0.0 1.0
  outer loop
    vertex 8.229999999999999 9.6 2.5
    vertex 8.229999999999999 6.870000000000001 2.5
    vertex 8.229999999999999 8.13 2.5
  endloop
endfacet
facet normal -0.0 -0.0 1.0
  outer loop
    vertex 6.77 6.870000000000001 2.5
    vertex 5.499999999999999 8.13 2.5
    vertex 5.499999999999999 6.870000000000001 2.5
  endloop
endfacet
facet normal -0.0 -0.0 1.0
  outer loop
    vertex 5.499999999999999 8.13 2.5
    vertex 6.77 6.870000000000001 2.5
    vertex 6.77 8.13 2.5
  endloop
endfacet
facet normal -0.0 1.0 0.0
  outer loop
    vertex 1.9999999999999996 15.0 2.5
    vertex 12.999999999999998 15.0 0.0
    vertex 1.9999999999999996 15.0 0.0
  endloop
endfacet
facet normal -0.0 1.0 0.0
  outer loop
    vertex 12.999999999999998 15.0 0.0
    vertex 1.9999999999999996 15.0 2.5
    vertex 12.999999999999998 15.0 2.5
  endloop
endfacet
facet normal 0.13052619222005143 0.9914448613738105 0.0
  outer loop
    vertex 12.999999999999998 15.0 2.5
    vertex 13.517638090205041 14.931851652578137 0.0
    vertex 12.999999999999998 15.0 0.0
  endloop
endfacet
facet normal 0.13052619222005143 0.9914448613738105 0.0
  outer loop
    vertex 13.517638090205041 14.931851652578137 0.0
    vertex 12.999999999999998 15.0 2.5
    vertex 13.517638090205041 14.931851652578137 2.5
  endloop
endfacet
facet normal 0.3826834323650913 0.9238795325112861 0.0
  outer loop
    vertex 13.517638090205041 14.931851652578137 2.5
    vertex 14.0 14.732050807568877 0.0
    vertex 13.517638090205041 14.931851652578137 0.0
  endloop
endfacet
facet normal 0.3826834323650913 0.9238795325112861 0.0
  outer loop
    vertex 14.0 14.732050807568877 0.0
    vertex 13.517638090205041 14.931851652578137 2.5
    vertex 14.0 14.732050807568877 2.5
  endloop
endfacet
facet normal 0.6087614290087213 0.7933533402912347 0.0
  outer loop
    vertex 14.0 14.732050807568877 2.5
    vertex 14.414213562373094 14.414213562373094 0.0
    vertex 14.0 14.732050807568877 0.0
  endloop
endfacet
facet normal 0.6087614290087213 0.7933533402912347 0.0
  outer loop
    vertex 14.414213562373094 14.414213562373094 0.0
    vertex 14.0 14.732050807568877 2.5
    vertex 14.414213562373094 14.414213562373094 2.5
  endloop
endfacet
facet normal 0.7933533402912347 0.6087614290087213 0.0
  outer loop
    vertex 14.414213562373094 14.414213562373094 0.0
    vertex 14.732050807568877 14.0 2.5
    vertex 14.732050807568877 14.0 0.0
  endloop
endfacet
facet normal 0.7933533402912347 0.6087614290087213 0.0
  outer loop
    vertex 14.732050807568877 14.0 2.5
    vertex 14.414213562373094 14.414213562373094 0.0
    vertex 14.414213562373094 14.414213562373094 2.5
  endloop
endfacet
facet normal 0.9238795325112881 0.3826834323650867 0.0
  outer loop
    vertex 14.732050807568877 14.0 0.0
    vertex 14.931851652578134 13.517638090205041 2.5
    vertex 14.931851652578134 13.517638090205041 0.0
  endloop
endfacet
facet normal 0.9238795325112881 0.3826834323650867 0.0
  outer loop
    vertex 14.931851652578134 13.517638090205041 2.5
    vertex 14.732050807568877 14.0 0.0
    vertex 14.732050807568877 14.0 2.5
  endloop
endfacet
facet normal 0.9914448613738104 0.13052619222005216 0.0
  outer loop
    vertex 14.931851652578134 13.517638090205041 0.0
    vertex 14.999999999999998 13.000000000000002 2.5
    vertex 14.999999999999998 13.000000000000002 0.0
  endloop
endfacet
facet normal 0.9914448613738104 0.13052619222005216 0.0
  outer loop
    vertex 14.999999999999998 13.000000000000002 2.5
    vertex 14.931851652578134 13.517638090205041 0.0
    vertex 14.931851652578134 13.517638090205041 2.5
  endloop
endfacet
facet normal 1.0 0.0 0.0
  outer loop
    vertex 14.999999999999998 13.000000000000002 0.0
    vertex 14.999999999999998 1.9999999999999998 2.5
    vertex 14.999999999999998 1.9999999999999998 0.0
  endloop
endfacet
facet normal 1.0 0.0 0.0
  outer loop
    vertex 14.999999999999998 1.9999999999999998 2.5
    vertex 14.999999999999998 13.000000000000002 0.0
    vertex 14.999999999999998 13.000000000000002 2.5
  endloop
endfacet
facet normal 0.9914448613738104 -0.13052619222005166 0.0
  outer loop
    vertex 14.999999999999998 1.9999999999999998 0.0
    vertex 14.931851652578134 1.482361909794958 2.5
    vertex 14.931851652578134 1.482361909794958 0.0
  endloop
endfacet
facet normal 0.9914448613738104 -0.13052619222005166 0.0
  outer loop
    vertex 14.931851652578134 1.482361909794958 2.5
    vertex 14.999999999999998 1.9999999999999998 0.0
    vertex 14.999999999999998 1.9999999999999998 2.5
  endloop
endfacet
facet normal 0.923879532511288 -0.3826834323650868 0.0
  outer loop
    vertex 14.931851652578134 1.482361909794958 0.0
    vertex 14.732050807568877 0.9999999999999999 2.5
    vertex 14.732050807568877 0.9999999999999999 0.0
  endloop
endfacet
facet normal 0.923879532511288 -0.3826834323650868 0.0
  outer loop
    vertex 14.732050807568877 0.9999999999999999 2.5
    vertex 14.931851652578134 1.482361909794958 0.0
    vertex 14.931851652578134 1.482361909794958 2.5
  endloop
endfacet
facet normal 0.7933533402912347 -0.6087614290087211 0.0
  outer loop
    vertex 14.732050807568877 0.9999999999999999 0.0
    vertex 14.414213562373094 0.585786437626905 2.5
    vertex 14.414213562373094 0.585786437626905 0.0
  endloop
endfacet
facet normal 0.7933533402912347 -0.6087614290087211 0.0
  outer loop
    vertex 14.414213562373094 0.585786437626905 2.5
    vertex 14.732050807568877 0.9999999999999999 0.0
    vertex 14.732050807568877 0.9999999999999999 2.5
  endloop
endfacet
facet normal 0.6087614290087207 -0.7933533402912352 0.0
  outer loop
    vertex 14.414213562373094 0.585786437626905 2.5
    vertex 14.0 0.2679491924311229 0.0
    vertex 14.414213562373094 0.585786437626905 0.0
  endloop
endfacet
facet normal 0.6087614290087207 -0.7933533402912352 0.0
  outer loop
    vertex 14.0 0.2679491924311229 0.0
    vertex 14.414213562373094 0.585786437626905 2.5
    vertex 14.0 0.2679491924311229 2.5
  endloop
endfacet
facet normal 0.38268343236508956 -0.9238795325112868 0.0
  outer loop
    vertex 14.0 0.2679491924311229 2.5
    vertex 13.517638090205041 0.06814834742186386 0.0
    vertex 14.0 0.2679491924311229 0.0
  endloop
endfacet
facet normal 0.38268343236508956 -0.9238795325112868 0.0
  outer loop
    vertex 13.517638090205041 0.06814834742186386 0.0
    vertex 14.0 0.2679491924311229 2.5
    vertex 13.517638090205041 0.06814834742186386 2.5
  endloop
endfacet
facet normal 0.13052619222005143 -0.9914448613738105 0.0
  outer loop
    vertex 13.517638090205041 0.06814834742186386 2.5
    vertex 12.999999999999998 3.524958103184872e-16 0.0
    vertex 13.517638090205041 0.06814834742186386 0.0
  endloop
endfacet
facet normal 0.13052619222005143 -0.9914448613738105 0.0
  outer loop
    vertex 12.999999999999998 3.524958103184872e-16 0.0
    vertex 13.517638090205041 0.06814834742186386 2.5
    vertex 12.999999999999998 3.524958103184872e-16 2.5
  endloop
endfacet
facet normal 3.2045073665317024e-17 -1.0 0.0
  outer loop
    vertex 12.999999999999998 3.524958103184872e-16 2.5
    vertex 2.0 0.0 0.0
    vertex 12.999999999999998 3.524958103184872e-16 0.0
  endloop
endfacet
facet normal 3.2045073665317024e-17 -1.0 0.0
  outer loop
    vertex 2.0 0.0 0.0
    vertex 12.999999999999998 3.524958103184872e-16 2.5
    vertex 2.0 0.0 2.5
  endloop
endfacet
facet normal -0.13052619222005166 -0.9914448613738104 -0.0
  outer loop
    vertex 2.0 0.0 2.5
    vertex 1.4823619097949583 0.0681483474218635 0.0
    vertex 2.0 0.0 0.0
  endloop
endfacet
facet normal -0.13052619222005166 -0.9914448613738104 -0.0
  outer loop
    vertex 1.4823619097949583 0.0681483474218635 0.0
    vertex 2.0 0.0 2.5
    vertex 1.4823619097949583 0.0681483474218635 2.5
  endloop
endfacet
facet normal -0.3826834323650902 -0.9238795325112865 -0.0
  outer loop
    vertex 1.4823619097949583 0.0681483474218635 2.5
    vertex 1.0000000000000002 0.2679491924311229 0.0
    vertex 1.4823619097949583 0.0681483474218635 0.0
  endloop
endfacet
facet normal -0.3826834323650902 -0.9238795325112865 -0.0
  outer loop
    vertex 1.0000000000000002 0.2679491924311229 0.0
    vertex 1.4823619097949583 0.0681483474218635 2.5
    vertex 1.0000000000000002 0.2679491924311229 2.5
  endloop
endfacet
facet normal -0.6087614290087199 -0.7933533402912357 -0.0
  outer loop
    vertex 1.0000000000000002 0.2679491924311229 2.5
    vertex 0.5857864376269052 0.5857864376269046 0.0
    vertex 1.0000000000000002 0.2679491924311229 0.0
  endloop
endfacet
facet normal -0.6087614290087199 -0.7933533402912357 -0.0
  outer loop
    vertex 0.5857864376269052 0.5857864376269046 0.0
    vertex 1.0000000000000002 0.2679491924311229 2.5
    vertex 0.5857864376269052 0.5857864376269046 2.5
  endloop
endfacet
facet normal -0.7933533402912353 -0.6087614290087205 -0.0
  outer loop
    vertex 0.2679491924311229 0.9999999999999998 2.5
    vertex 0.5857864376269052 0.5857864376269046 0.0
    vertex 0.5857864376269052 0.5857864376269046 2.5
  endloop
endfacet
facet normal -0.7933533402912353 -0.6087614290087205 -0.0
  outer loop
    vertex 0.5857864376269052 0.5857864376269046 0.0
    vertex 0.2679491924311229 0.9999999999999998 2.5
    vertex 0.2679491924311229 0.9999999999999998 0.0
  endloop
endfacet
facet normal -0.9238795325112868 -0.38268343236508956 -0.0
  outer loop
    vertex 0.06814834742186386 1.482361909794958 2.5
    vertex 0.2679491924311229 0.9999999999999998 0.0
    vertex 0.2679491924311229 0.9999999999999998 2.5
  endloop
endfacet
facet normal -0.9238795325112868 -0.38268343236508956 -0.0
  outer loop
    vertex 0.2679491924311229 0.9999999999999998 0.0
    vertex 0.06814834742186386 1.482361909794958 2.5
    vertex 0.06814834742186386 1.482361909794958 0.0
  endloop
endfacet
facet normal -0.9914448613738104 -0.13052619222005174 -0.0
  outer loop
    vertex 3.524958103184872e-16 1.9999999999999996 2.5
    vertex 0.06814834742186386 1.482361909794958 0.0
    vertex 0.06814834742186386 1.482361909794958 2.5
  endloop
endfacet
facet normal -0.9914448613738104 -0.13052619222005174 -0.0
  outer loop
    vertex 0.06814834742186386 1.482361909794958 0.0
    vertex 3.524958103184872e-16 1.9999999999999996 2.5
    vertex 3.524958103184872e-16 1.9999999999999996 0.0
  endloop
endfacet
facet normal -1.0 -3.204507366531701e-17 -0.0
  outer loop
    vertex 0.0 13.000000000000002 2.5
    vertex 3.524958103184872e-16 1.9999999999999996 0.0
    vertex 3.524958103184872e-16 1.9999999999999996 2.5
  endloop
endfacet
facet normal -1.0 -3.204507366531701e-17 -0.0
  outer loop
    vertex 3.524958103184872e-16 1.9999999999999996 0.0
    vertex 0.0 13.000000000000002 2.5
    vertex 0.0 13.000000000000002 0.0
  endloop
endfacet
facet normal -0.9914448613738105 0.13052619222005213 0.0
  outer loop
    vertex 0.06814834742186386 13.517638090205045 2.5
    vertex 0.0 13.000000000000002 0.0
    vertex 0.0 13.000000000000002 2.5
  endloop
endfacet
facet normal -0.9914448613738105 0.13052619222005213 0.0
  outer loop
    vertex 0.0 13.000000000000002 0.0
    vertex 0.06814834742186386 13.517638090205045 2.5
    vertex 0.06814834742186386 13.517638090205045 0.0
  endloop
endfacet
facet normal -0.9238795325112867 0.3826834323650902 0.0
  outer loop
    vertex 0.2679491924311233 14.000000000000002 2.5
    vertex 0.06814834742186386 13.517638090205045 0.0
    vertex 0.06814834742186386 13.517638090205045 2.5
  endloop
endfacet
facet normal -0.9238795325112867 0.3826834323650902 0.0
  outer loop
    vertex 0.06814834742186386 13.517638090205045 0.0
    vertex 0.2679491924311233 14.000000000000002 2.5
    vertex 0.2679491924311233 14.000000000000002 0.0
  endloop
endfacet
facet normal -0.7933533402912355 0.6087614290087203 0.0
  outer loop
    vertex 0.585786437626905 14.414213562373098 2.5
    vertex 0.2679491924311233 14.000000000000002 0.0
    vertex 0.2679491924311233 14.000000000000002 2.5
  endloop
endfacet
facet normal -0.7933533402912355 0.6087614290087203 0.0
  outer loop
    vertex 0.2679491924311233 14.000000000000002 0.0
    vertex 0.585786437626905 14.414213562373098 2.5
    vertex 0.585786437626905 14.414213562373098 0.0
  endloop
endfacet
facet normal -0.6087614290087202 0.7933533402912355 0.0
  outer loop
    vertex 0.585786437626905 14.414213562373098 2.5
    vertex 1.0000000000000009 14.73205080756888 0.0
    vertex 0.585786437626905 14.414213562373098 0.0
  endloop
endfacet
facet normal -0.6087614290087202 0.7933533402912355 0.0
  outer loop
    vertex 1.0000000000000009 14.73205080756888 0.0
    vertex 0.585786437626905 14.414213562373098 2.5
    vertex 1.0000000000000009 14.73205080756888 2.5
  endloop
endfacet
facet normal -0.38268343236508695 0.923879532511288 0.0
  outer loop
    vertex 1.0000000000000009 14.73205080756888 2.5
    vertex 1.482361909794959 14.931851652578137 0.0
    vertex 1.0000000000000009 14.73205080756888 0.0
  endloop
endfacet
facet normal -0.38268343236508695 0.923879532511288 0.0
  outer loop
    vertex 1.482361909794959 14.931851652578137 0.0
    vertex 1.0000000000000009 14.73205080756888 2.5
    vertex 1.482361909794959 14.931851652578137 2.5
  endloop
endfacet
facet normal -0.130526192220052 0.9914448613738105 0.0
  outer loop
    vertex 1.482361909794959 14.931851652578137 2.5
    vertex 1.9999999999999996 15.0 0.0
    vertex 1.482361909794959 14.931851652578137 0.0
  endloop
endfacet
facet normal -0.130526192220052 0.9914448613738105 0.0
  outer loop
    vertex 1.9999999999999996 15.0 0.0
    vertex 1.482361909794959 14.931851652578137 2.5
    vertex 1.9999999999999996 15.0 2.5
  endloop
endfacet
facet normal 0.0 0.0 1.0
  outer loop
    vertex 8.999999999999998 4.5 5.9999999999999964
    vertex 6.77 5.4 5.9999999999999964
    vertex 5.999999999999999 4.5 5.9999999999999964
  endloop
endfacet
facet normal 0.0 0.0 1.0
  outer loop
    vertex 6.77 5.4 5.9999999999999964
    vertex 8.999999999999998 4.5 5.9999999999999964
    vertex 8.229999999999999 5.4 5.9999999999999964
  endloop
endfacet
facet normal 0.0 0.0 1.0
  outer loop
    vertex 8.229999999999999 5.4 5.9999999999999964
    vertex 8.999999999999998 4.5 5.9999999999999964
    vertex 8.229999999999999 6.870000000000001 5.9999999999999964
  endloop
endfacet
facet normal 0.0 0.0 1.0
  outer loop
    vertex 8.229999999999999 6.870000000000001 5.9999999999999964
    vertex 8.999999999999998 4.5 5.9999999999999964
    vertex 9.5 6.870000000000001 5.9999999999999964
  endloop
endfacet
facet normal 0.0 0.0 1.0
  outer loop
    vertex 9.5 6.870000000000001 5.9999999999999964
    vertex 8.999999999999998 4.5 5.9999999999999964
    vertex 9.5 5.000000000000001 5.9999999999999964
  endloop
endfacet
facet normal 0.0 0.0 1.0
  outer loop
    vertex 5.999999999999999 4.5 5.9999999999999964
    vertex 5.499999999999999 6.870000000000001 5.9999999999999964
    vertex 5.499999999999999 5.0 5.9999999999999964
  endloop
endfacet
facet normal 0.0 0.0 1.0
  outer loop
    vertex 5.499999999999999 6.870000000000001 5.9999999999999964
    vertex 5.999999999999999 4.5 5.9999999999999964
    vertex 6.77 6.870000000000001 5.9999999999999964
  endloop
endfacet
facet normal 0.0 0.0 1.0
  outer loop
    vertex 6.77 6.870000000000001 5.9999999999999964
    vertex 5.999999999999999 4.5 5.9999999999999964
    vertex 6.77 5.4 5.9999999999999964
  endloop
endfacet
facet normal -1.0 0.0 0.0
  outer loop
    vertex 5.499999999999999 6.870000000000001 5.9999999999999964
    vertex 5.499999999999999 5.0 2.500000000000001
    vertex 5.499999999999999 5.0 5.9999999999999964
  endloop
endfacet
facet normal -1.0 0.0 0.0
  outer loop
    vertex 5.499999999999999 5.0 2.500000000000001
    vertex 5.499999999999999 6.870000000000001 5.9999999999999964
    vertex 5.499999999999999 6.870000000000001 2.5
  endloop
endfacet
facet normal 0.0 -1.0 0.0
  outer loop
    vertex 8.999999999999998 4.5 2.500000000000001
    vertex 5.999999999999999 4.5 5.9999999999999964
    vertex 5.999999999999999 4.5 2.500000000000001
  endloop
endfacet
facet normal 0.0 -1.0 0.0
  outer loop
    vertex 5.999999999999999 4.5 5.9999999999999964
    vertex 8.999999999999998 4.5 2.500000000000001
    vertex 8.999999999999998 4.5 5.9999999999999964
  endloop
endfacet
facet normal 1.0 -0.0 -0.0
  outer loop
    vertex 9.5 6.870000000000001 2.5
    vertex 9.5 5.000000000000001 5.9999999999999964
    vertex 9.5 5.000000000000001 2.500000000000001
  endloop
endfacet
facet normal 1.0 -0.0 -0.0
  outer loop
    vertex 9.5 5.000000000000001 5.9999999999999964
    vertex 9.5 6.870000000000001 2.5
    vertex 9.5 6.870000000000001 5.9999999999999964
  endloop
endfacet
facet normal 0.0 1.0 0.0
  outer loop
    vertex 8.229999999999999 6.870000000000001 5.9999999999999964
    vertex 9.5 6.870000000000001 2.5
    vertex 8.229999999999999 6.870000000000001 2.5
  endloop
endfacet
facet normal 0.0 1.0 0.0
  outer loop
    vertex 9.5 6.870000000000001 2.5
    vertex 8.229999999999999 6.870000000000001 5.9999999999999964
    vertex 9.5 6.870000000000001 5.9999999999999964
  endloop
endfacet
facet normal -1.0 -0.0 -0.0
  outer loop
    vertex 8.229999999999999 6.870000000000001 5.9999999999999964
    vertex 8.229999999999999 5.4 2.5
    vertex 8.229999999999999 5.4 5.9999999999999964
  endloop
endfacet
facet normal -1.0 -0.0 -0.0
  outer loop
    vertex 8.229999999999999 5.4 2.5
    vertex 8.229999999999999 6.870000000000001 5.9999999999999964
    vertex 8.229999999999999 6.870000000000001 2.5
  endloop
endfacet
facet normal 0.0 1.0 0.0
  outer loop
    vertex 6.77 5.4 5.9999999999999964
    vertex 8.229999999999999 5.4 2.5
    vertex 6.77 5.4 2.5
  endloop
endfacet
facet normal 0.0 1.0 0.0
  outer loop
    vertex 8.229999999999999 5.4 2.5
    vertex 6.77 5.4 5.9999999999999964
    vertex 8.229999999999999 5.4 5.9999999999999964
  endloop
endfacet
facet normal 1.0 0.0 0.0
  outer loop
    vertex 6.77 6.870000000000001 2.5
    vertex 6.77 5.4 5.9999999999999964
    vertex 6.77 5.4 2.5
  endloop
endfacet
facet normal 1.0 0.0 0.0
  outer loop
    vertex 6.77 5.4 5.9999999999999964
    vertex 6.77 6.870000000000001 2.5
    vertex 6.77 6.870000000000001 5.9999999999999964
  endloop
endfacet
facet normal 0.0 1.0 0.0
  outer loop
    vertex 5.499999999999999 6.870000000000001 5.9999999999999964
    vertex 6.77 6.870000000000001 2.5
    vertex 5.499999999999999 6.870000000000001 2.5
  endloop
endfacet
facet normal 0.0 1.0 0.0
  outer loop
    vertex 6.77 6.870000000000001 2.5
    vertex 5.499999999999999 6.870000000000001 5.9999999999999964
    vertex 6.77 6.870000000000001 5.9999999999999964
  endloop
endfacet
facet normal 0.0 0.0 1.0
  outer loop
    vertex 9.5 8.13 5.999999999999998
    vertex 8.229999999999999 9.6 5.999999999999998
    vertex 8.229999999999999 8.13 5.999999999999998
  endloop
endfacet
facet normal 0.0 0.0 1.0
  outer loop
    vertex 8.229999999999999 9.6 5.999999999999998
    vertex 9.5 8.13 5.999999999999998
    vertex 8.999999999999998 10.499999999999998 5.999999999999999
  endloop
endfacet
facet normal 0.0 0.0 1.0
  outer loop
    vertex 8.999999999999998 10.499999999999998 5.999999999999999
    vertex 9.5 8.13 5.999999999999998
    vertex 9.5 9.999999999999998 5.999999999999998
  endloop
endfacet
facet normal 0.0 0.0 1.0
  outer loop
    vertex 6.77 8.13 5.999999999999998
    vertex 5.499999999999999 9.999999999999998 5.999999999999998
    vertex 5.499999999999999 8.13 5.999999999999998
  endloop
endfacet
facet normal 0.0 0.0 1.0
  outer loop
    vertex 5.499999999999999 9.999999999999998 5.999999999999998
    vertex 6.77 8.13 5.999999999999998
    vertex 5.999999999999999 10.499999999999998 5.999999999999999
  endloop
endfacet
facet normal 0.0 0.0 1.0
  outer loop
    vertex 5.999999999999999 10.499999999999998 5.999999999999999
    vertex 6.77 8.13 5.999999999999998
    vertex 6.77 9.6 5.999999999999998
  endloop
endfacet
facet normal 0.0 0.0 1.0
  outer loop
    vertex 5.999999999999999 10.499999999999998 5.999999999999999
    vertex 6.77 9.6 5.999999999999998
    vertex 8.999999999999998 10.499999999999998 5.999999999999999
  endloop
endfacet
facet normal 0.0 0.0 1.0
  outer loop
    vertex 8.999999999999998 10.499999999999998 5.999999999999999
    vertex 6.77 9.6 5.999999999999998
    vertex 8.229999999999999 9.6 5.999999999999998
  endloop
endfacet
facet normal 1.0 1.1310025999523666e-15 -7.049916206369748e-16
  outer loop
    vertex 9.499999999999995 9.999999999999998 2.500000000000003
    vertex 9.5 8.13 5.999999999999998
    vertex 9.5 8.13 2.5
  endloop
endfacet
facet normal 1.0 1.1310025999523666e-15 -7.049916206369748e-16
  outer loop
    vertex 9.5 8.13 5.999999999999998
    vertex 9.499999999999995 9.999999999999998 2.500000000000003
    vertex 9.5 9.999999999999998 5.999999999999998
  endloop
endfacet
facet normal -0.0 1.0 -0.0
  outer loop
    vertex 5.999999999999999 10.499999999999998 5.999999999999999
    vertex 8.999999999999995 10.499999999999998 2.500000000000004
    vertex 6.000000000000003 10.499999999999998 2.500000000000001
  endloop
endfacet
facet normal -0.0 1.0 -0.0
  outer loop
    vertex 8.999999999999995 10.499999999999998 2.500000000000004
    vertex 5.999999999999999 10.499999999999998 5.999999999999999
    vertex 8.999999999999998 10.499999999999998 5.999999999999999
  endloop
endfacet
facet normal -1.0 1.1310025999523664e-15 -7.049916206369747e-16
  outer loop
    vertex 5.499999999999999 9.999999999999998 5.999999999999998
    vertex 5.499999999999999 8.13 2.5
    vertex 5.499999999999999 8.13 5.999999999999998
  endloop
endfacet
facet normal -1.0 1.1310025999523664e-15 -7.049916206369747e-16
  outer loop
    vertex 5.499999999999999 8.13 2.5
    vertex 5.499999999999999 9.999999999999998 5.999999999999998
    vertex 5.5000000000000036 9.999999999999998 2.500000000000001
  endloop
endfacet
facet normal 0.0 -1.0 0.0
  outer loop
    vertex 6.77 8.13 5.999999999999998
    vertex 5.499999999999999 8.13 2.5
    vertex 6.77 8.13 2.5
  endloop
endfacet
facet normal 0.0 -1.0 0.0
  outer loop
    vertex 5.499999999999999 8.13 2.5
    vertex 6.77 8.13 5.999999999999998
    vertex 5.499999999999999 8.13 5.999999999999998
  endloop
endfacet
facet normal 1.0 0.0 0.0
  outer loop
    vertex 6.77 9.6 2.5
    vertex 6.77 8.13 5.999999999999998
    vertex 6.77 8.13 2.5
  endloop
endfacet
facet normal 1.0 0.0 0.0
  outer loop
    vertex 6.77 8.13 5.999999999999998
    vertex 6.77 9.6 2.5
    vertex 6.77 9.6 5.999999999999998
  endloop
endfacet
facet normal 0.0 -1.0 0.0
  outer loop
    vertex 8.229999999999999 9.6 5.999999999999998
    vertex 6.77 9.6 2.5
    vertex 8.229999999999999 9.6 2.5
  endloop
endfacet
facet normal 0.0 -1.0 0.0
  outer loop
    vertex 6.77 9.6 2.5
    vertex 8.229999999999999 9.6 5.999999999999998
    vertex 6.77 9.6 5.999999999999998
  endloop
endfacet
facet normal -1.0 -0.0 -0.0
  outer loop
    vertex 8.229999999999999 9.6 5.999999999999998
    vertex 8.229999999999999 8.13 2.5
    vertex 8.229999999999999 8.13 5.999999999999998
  endloop
endfacet
facet normal -1.0 -0.0 -0.0
  outer loop
    vertex 8.229999999999999 8.13 2.5
    vertex 8.229999999999999 9.6 5.999999999999998
    vertex 8.229999999999999 9.6 2.5
  endloop
endfacet
facet normal 0.0 -1.0 0.0
  outer loop
    vertex 9.5 8.13 5.999999999999998
    vertex 8.229999999999999 8.13 2.5
    vertex 9.5 8.13 2.5
  endloop
endfacet
facet normal 0.0 -1.0 0.0
  outer loop
    vertex 8.229999999999999 8.13 2.5
    vertex 9.5 8.13 5.999999999999998
    vertex 8.229999999999999 8.13 5.999999999999998
  endloop
endfacet
facet normal -0.707106781186548 0.707106781186547 -9.892195807074473e-16
  outer loop
    vertex 5.999999999999999 10.499999999999998 5.999999999999999
    vertex 5.5000000000000036 9.999999999999998 2.500000000000001
    vertex 5.499999999999999 9.999999999999998 5.999999999999998
  endloop
endfacet
facet normal -0.707106781186548 0.707106781186547 -9.892195807074473e-16
  outer loop
    vertex 5.5000000000000036 9.999999999999998 2.500000000000001
    vertex 5.999999999999999 10.499999999999998 5.999999999999999
    vertex 6.000000000000003 10.499999999999998 2.500000000000001
  endloop
endfacet
facet normal -0.7071067811865476 -0.7071067811865476 0.0
  outer loop
    vertex 5.499999999999999 5.0 5.9999999999999964
    vertex 5.999999999999999 4.5 2.500000000000001
    vertex 5.999999999999999 4.5 5.9999999999999964
  endloop
endfacet
facet normal -0.7071067811865476 -0.7071067811865476 0.0
  outer loop
    vertex 5.999999999999999 4.5 2.500000000000001
    vertex 5.499999999999999 5.0 5.9999999999999964
    vertex 5.499999999999999 5.0 2.500000000000001
  endloop
endfacet
facet normal 0.7071067811865476 -0.7071067811865476 0.0
  outer loop
    vertex 9.5 5.000000000000001 2.500000000000001
    vertex 8.999999999999998 4.5 5.9999999999999964
    vertex 8.999999999999998 4.5 2.500000000000001
  endloop
endfacet
facet normal 0.7071067811865476 -0.7071067811865476 0.0
  outer loop
    vertex 8.999999999999998 4.5 5.9999999999999964
    vertex 9.5 5.000000000000001 2.500000000000001
    vertex 9.5 5.000000000000001 5.9999999999999964
  endloop
endfacet
facet normal 0.7071067811865476 0.7071067811865476 -9.89219580707449e-16
  outer loop
    vertex 8.999999999999995 10.499999999999998 2.500000000000004
    vertex 9.5 9.999999999999998 5.999999999999998
    vertex 9.499999999999995 9.999999999999998 2.500000000000003
  endloop
endfacet
facet normal 0.7071067811865476 0.7071067811865476 -9.89219580707449e-16
  outer loop
    vertex 9.5 9.999999999999998 5.999999999999998
    vertex 8.999999999999995 10.499999999999998 2.500000000000004
    vertex 8.999999999999998 10.499999999999998 5.999999999999999
  endloop
endfacet
endsolid Keycaps v1
